<svg width="960" height="679" viewBox="0 0 960 679" fill="none" xmlns="http://www.w3.org/2000/svg">
<g id="cv_front 2 1">
<path id="Vector" d="M867.065 22.5836H0.369568V413.467H867.065V22.5836Z" fill="white"/>
<path id="Vector_2" d="M842.283 56.1025H25.153V382.228H842.283V56.1025Z" fill="white"/>
<path id="Vector_3" d="M611.09 105.686H496.007V113.907H611.09V105.686Z" fill="#E6E6E6"/>
<path id="Vector_4" d="M642.687 152.806H497.855V161.027H642.687V152.806Z" fill="#E6E6E6"/>
<path id="Vector_5" d="M580.558 178.026H496.007V186.247H580.558V178.026Z" fill="#E6E6E6"/>
<path id="Vector_6" d="M457.646 103.1H443.555V116.493H457.646V103.1Z" fill="#E6E6E6"/>
<path id="Vector_7" d="M457.646 150.22H443.555V163.613H457.646V150.22Z" fill="#E6E6E6"/>
<path id="Vector_8" d="M457.646 175.44H443.555V188.833H457.646V175.44Z" fill="#E6E6E6"/>
<path id="Vector_9" d="M611.09 227.449H496.007V235.67H611.09V227.449Z" fill="#E6E6E6"/>
<path id="Vector_10" d="M642.687 274.569H497.855V282.79H642.687V274.569Z" fill="#E6E6E6"/>
<path id="Vector_11" d="M580.558 299.789H496.007V308.011H580.558V299.789Z" fill="#E6E6E6"/>
<path id="Vector_12" d="M623.616 324.424H496.007V332.645H623.616V324.424Z" fill="#E6E6E6"/>
<path id="Vector_13" d="M457.646 224.863H443.555V238.257H457.646V224.863Z" fill="#E6E6E6"/>
<g id="front-same-color">
<path id="Vector_14" d="M866.695 0H0V34.9953H866.695V0Z" fill="#118AB2"/>
<path id="Vector_15" d="M673.72 129.821H496.007V138.042H673.72V129.821Z" fill="#118AB2"/>
<path id="Vector_16" d="M623.616 202.66H496.007V210.882H623.616V202.66Z" fill="#118AB2"/>
<path id="Vector_17" d="M457.646 127.234H443.555V140.628H457.646V127.234Z" fill="#118AB2"/>
<path id="Vector_18" d="M457.646 200.074H443.555V213.468H457.646V200.074Z" fill="#118AB2"/>
<path id="Vector_19" d="M673.72 251.584H496.007V259.805H673.72V251.584Z" fill="#118AB2"/>
<path id="Vector_20" d="M457.646 248.998H443.555V262.391H457.646V248.998Z" fill="#118AB2"/>
</g>
<path id="Vector_21" d="M27.3617 27.0643C31.1307 27.0643 34.1861 24.1603 34.1861 20.578C34.1861 16.9958 31.1307 14.0918 27.3617 14.0918C23.5927 14.0918 20.5373 16.9958 20.5373 20.578C20.5373 24.1603 23.5927 27.0643 27.3617 27.0643Z" fill="white"/>
<path id="Vector_22" d="M53.2649 27.0643C57.0339 27.0643 60.0893 24.1603 60.0893 20.578C60.0893 16.9958 57.0339 14.0918 53.2649 14.0918C49.4959 14.0918 46.4405 16.9958 46.4405 20.578C46.4405 24.1603 49.4959 27.0643 53.2649 27.0643Z" fill="white"/>
<path id="Vector_23" d="M79.1693 27.0643C82.9383 27.0643 85.9937 24.1603 85.9937 20.578C85.9937 16.9958 82.9383 14.0918 79.1693 14.0918C75.4003 14.0918 72.3449 16.9958 72.3449 20.578C72.3449 24.1603 75.4003 27.0643 79.1693 27.0643Z" fill="white"/>
<path id="Vector_24" d="M457.646 271.983H443.555V285.377H457.646V271.983Z" fill="#E6E6E6"/>
<path id="Vector_25" d="M457.646 297.203H443.555V310.597H457.646V297.203Z" fill="#E6E6E6"/>
<path id="Vector_26" d="M457.646 321.838H443.555V335.231H457.646V321.838Z" fill="#E6E6E6"/>
<path id="Vector_27" d="M247.028 291.937H131.946V300.158H247.028V291.937Z" fill="#3F3D56"/>
<path id="Vector_28" d="M261.379 313.299H116.548V321.52H261.379V313.299Z" fill="#3F3D56"/>
<path id="Vector_29" d="M264.285 188.23C264.28 200.586 260.904 212.73 254.486 223.475C248.067 234.22 238.827 243.2 227.666 249.537C216.506 255.874 203.807 259.352 190.81 259.63C177.813 259.909 164.962 256.979 153.512 251.127L153.497 251.113C141.802 245.124 131.986 236.296 125.049 225.528C118.112 214.759 114.303 202.436 114.01 189.812C113.716 177.189 116.948 164.717 123.378 153.668C129.807 142.619 139.203 133.387 150.608 126.913C162.014 120.439 175.021 116.955 188.305 116.815C201.589 116.675 214.675 119.885 226.228 126.117C237.782 132.349 247.391 141.38 254.076 152.291C260.762 163.203 264.284 175.603 264.285 188.23Z" fill="#3F3D56"/>
<path id="Vector_30" d="M189.525 184.763C200.807 184.763 209.953 176.07 209.953 165.348C209.953 154.625 200.807 145.933 189.525 145.933C178.244 145.933 169.098 154.625 169.098 165.348C169.098 176.07 178.244 184.763 189.525 184.763Z" fill="white"/>
<path id="Vector_31" d="M224.405 224.878C201.569 232.497 176.668 232.405 153.895 224.619L153.88 224.609L169.098 196.058H209.953L224.405 224.878Z" fill="white"/>
<path id="Vector_32" d="M808.178 664.306H793.077L785.891 608.941L808.182 608.943L808.178 664.306Z" fill="#FFB7B7"/>
<path id="Vector_33" d="M812.03 678.221L763.334 678.219V677.633C763.335 672.856 765.332 668.274 768.886 664.896C772.44 661.517 777.261 659.619 782.288 659.619H782.289L812.031 659.62L812.03 678.221Z" fill="#2F2E41"/>
<path id="Vector_34" d="M845.064 664.306H860.167L867.351 608.941L845.062 608.943L845.064 664.306Z" fill="#FFB7B7"/>
<path id="Vector_35" d="M841.212 659.62L870.954 659.619H870.955C875.982 659.619 880.802 661.517 884.357 664.896C887.911 668.274 889.908 672.856 889.909 677.633V678.219L841.213 678.221L841.212 659.62Z" fill="#2F2E41"/>
<path id="Vector_36" d="M804.822 231.648C811.309 219.239 805.984 204.182 792.928 198.017C779.873 191.852 764.031 196.913 757.544 209.322C751.057 221.73 756.383 236.787 769.438 242.953C782.494 249.118 798.336 244.056 804.822 231.648Z" fill="#FFB7B7"/>
<path id="Vector_37" d="M761.746 393.075C761.746 393.075 753.41 426.085 757.578 441.93C761.746 457.775 774.249 566.05 774.249 566.05L782.585 651.878L815.927 654.519L811.76 554.167L815.927 467.018L839.545 551.526V652.177L874.906 653.498L875.666 522.476C875.666 522.476 878.444 419.483 860.384 406.279C842.323 393.075 839.545 390.434 839.545 390.434L761.746 393.075Z" fill="#2F2E41"/>
<path id="Vector_38" d="M812.08 247.828L843.713 263.673L847.88 400.997C847.88 400.997 829.82 390.434 802.035 403.638C774.249 416.842 756.189 407.599 756.189 407.599L772.86 348.18L765.914 268.954L775.849 260.384L812.08 247.828Z" fill="#CBCBCB"/>
<path id="Vector_39" d="M775.852 257.884L770.082 262.352C770.082 262.352 733.961 279.518 732.571 291.402L757.578 356.103C757.578 356.103 764.525 370.627 758.967 375.909C753.41 381.191 747.853 394.395 749.242 400.997C750.632 407.599 740.907 435.328 752.021 435.328C763.135 435.328 789.531 371.948 788.142 346.86C786.753 321.771 785.791 256.057 775.852 257.884Z" fill="#2F2E41"/>
<path id="Vector_40" d="M800.137 249.315L812.862 247.303C812.862 247.303 860.097 259.187 867.043 278.993L847.593 325.208C847.593 325.208 861.486 409.715 857.318 409.715H853.15C853.15 409.715 864.264 417.638 857.318 420.279C850.372 422.92 833.701 444.046 829.533 434.803C825.365 425.56 800.358 315.965 803.137 292.197C805.915 268.43 797.669 251.805 800.137 249.315Z" fill="#2F2E41"/>
<path id="Vector_41" d="M805.659 195.92L806.895 193.555L800.675 190.617C800.675 190.617 793.812 180.004 781.394 182.986C768.976 185.969 763.389 187.754 763.389 187.754L757.184 190.721L760.298 193.666L754.711 195.451L758.444 197.214L754.101 199.586L756.439 211.749C756.439 211.749 760.322 202.524 767.787 206.049C775.252 209.574 788.906 204.227 788.906 204.227L800.769 226.047C800.769 226.047 803.216 218.398 807.579 220.438C807.579 220.438 818.727 203.565 805.659 195.92Z" fill="#2F2E41"/>
<path id="Vector_42" d="M844.301 427.62C843.614 426.027 843.304 424.311 843.391 422.592C843.478 420.873 843.96 419.192 844.804 417.67C845.648 416.147 846.834 414.819 848.276 413.778C849.719 412.738 851.384 412.011 853.154 411.649L858.502 370.12L875.927 384.205L868.178 421.482C868.621 424.349 867.943 427.271 866.271 429.695C864.6 432.118 862.051 433.874 859.108 434.631C856.164 435.388 853.031 435.092 850.302 433.8C847.573 432.508 845.438 430.309 844.301 427.62Z" fill="#FFB7B7"/>
<path id="Vector_43" d="M769.771 424.762C770.276 423.11 770.394 421.372 770.115 419.671C769.837 417.97 769.17 416.348 768.16 414.919C767.151 413.49 765.825 412.288 764.274 411.399C762.723 410.51 760.986 409.955 759.186 409.773L749.235 369.018L733.48 384.78L745.344 421.065C745.223 423.961 746.223 426.798 748.156 429.039C750.089 431.281 752.819 432.77 755.83 433.226C758.841 433.682 761.923 433.072 764.493 431.512C767.062 429.952 768.94 427.551 769.771 424.762Z" fill="#FFB7B7"/>
<path id="Vector_44" d="M844.972 268.232C844.972 268.232 863.033 261.63 868.59 281.437C874.147 301.243 881.093 340.856 881.093 340.856C881.438 362.883 880.207 362.883 881.093 384.43L876.925 404.236L853.308 401.596L854.338 351.175L842.194 299.923L844.972 268.232Z" fill="#2F2E41"/>
<path id="Vector_45" d="M745.075 283.479L736.512 284.35C736.512 284.35 728.403 290.081 728.403 303.285C728.403 316.49 727.014 356.103 727.014 356.103C727.014 356.103 726.226 357.029 732.571 390.434C735.664 406.715 741.008 414.399 741.008 414.399L758.254 399.178L756.189 360.064L761.746 338.937L745.075 283.479Z" fill="#2F2E41"/>
<path id="Vector_46" d="M958.768 679H682.835C682.508 679 682.195 678.877 681.964 678.657C681.733 678.437 681.603 678.14 681.603 677.829C681.603 677.519 681.733 677.221 681.964 677.001C682.195 676.782 682.508 676.658 682.835 676.658H958.768C959.095 676.658 959.408 676.782 959.639 677.001C959.87 677.221 960 677.519 960 677.829C960 678.14 959.87 678.437 959.639 678.657C959.408 678.877 959.095 679 958.768 679Z" fill="#CBCBCB"/>
</g>
</svg>
